<svg width="48" height="48" viewBox="0 0 32 32" fill="none" xmlns="http://www.w3.org/2000/svg">
<path d="M0 0H23C27.9706 0 32 4.02944 32 9V32H9C4.02944 32 0 27.9706 0 23V0Z" fill="#F7F7F7"/>
<mask id="path-2-outside-1_1_61" maskUnits="userSpaceOnUse" x="6" y="7" width="14" height="17" fill="black">
<rect fill="white" x="6" y="7" width="14" height="17"/>
<path d="M11.74 23V11.14H7.2V8.6H19V11.14H14.46V23H11.74Z"/>
</mask>
<path d="M11.74 23H10.94V23.8H11.74V23ZM11.74 11.14H12.54V10.34H11.74V11.14ZM7.2 11.14H6.4V11.94H7.2V11.14ZM7.2 8.6V7.8H6.4V8.6H7.2ZM19 8.6H19.8V7.8H19V8.6ZM19 11.14V11.94H19.8V11.14H19ZM14.46 11.14V10.34H13.66V11.14H14.46ZM14.46 23V23.8H15.26V23H14.46ZM11.74 23H12.54V11.14H11.74H10.94V23H11.74ZM11.74 11.14V10.34H7.2V11.14V11.94H11.74V11.14ZM7.2 11.14H8V8.6H7.2H6.4V11.14H7.2ZM7.2 8.6V9.4H19V8.6V7.8H7.2V8.6ZM19 8.6H18.2V11.14H19H19.8V8.6H19ZM19 11.14V10.34H14.46V11.14V11.94H19V11.14ZM14.46 11.14H13.66V23H14.46H15.26V11.14H14.46ZM14.46 23V22.2H11.74V23V23.8H14.46V23Z" fill="#1E1E1E" mask="url(#path-2-outside-1_1_61)"/>
<path d="M15.75 25V24.745L20.88 16.105H16.2V14.2H24.45V14.455L19.35 23.08H24.3V25H15.75Z" fill="#1E1E1E"/>
</svg>
